<svg width="366" height="58" viewBox="0 0 366 58" fill="none" xmlns="http://www.w3.org/2000/svg">
<path d="M9.448 4.6H42.208L39.832 17.92H22.048L20.824 25.12H38.032L35.872 37.36H18.736L15.712 55H0.808L9.448 4.6ZM69.3571 55L67.1251 48.52H53.7331L49.1971 55H31.1971L68.2051 0.855998L86.6371 55H69.3571ZM63.7411 27.496L58.0531 37.144H66.3331L63.7411 27.496ZM97.2109 18.64L99.6589 4.6H140.915L113.123 41.608L131.267 41.68L128.963 55H86.2669L113.555 18.712L97.2109 18.64ZM143.617 18.64L146.065 4.6H187.321L159.529 41.608L177.673 41.68L175.369 55H132.673L159.961 18.712L143.617 18.64Z" fill="#0FBC62"/>
<path d="M207.015 34.84C207.159 33.736 207.111 32.68 206.871 31.672C206.679 30.664 205.839 30.16 204.351 30.16C201.711 30.16 200.175 31.696 199.743 34.768L196.287 55H182.463L188.079 21.88H201.975L201.327 26.344C202.431 24.808 203.799 23.56 205.431 22.6C207.111 21.592 209.127 21.088 211.479 21.088C215.655 21.04 218.535 22.192 220.119 24.544C221.703 26.848 222.207 29.8 221.631 33.4L217.959 55H203.343L207.015 34.84ZM244.737 55.72C239.121 55.72 234.633 54.376 231.273 51.688C227.961 48.952 226.305 45.256 226.305 40.6C226.305 36.808 227.241 33.472 229.113 30.592C230.985 27.664 233.601 25.36 236.961 23.68C240.321 22 244.233 21.16 248.697 21.16C254.265 21.16 258.417 22.504 261.153 25.192C263.937 27.88 265.329 31.48 265.329 35.992C265.329 37.72 265.065 39.496 264.537 41.32H240.057C240.105 42.904 240.561 44.152 241.425 45.064C242.337 45.928 243.561 46.36 245.097 46.36C246.633 46.36 247.905 46.096 248.913 45.568C249.969 44.992 250.881 44.176 251.649 43.12L264.105 45.136C260.553 52.192 254.097 55.72 244.737 55.72ZM247.257 29.8C245.817 29.8 244.641 30.184 243.729 30.952C242.865 31.72 242.121 32.92 241.497 34.552H251.217C251.121 33.016 250.761 31.84 250.137 31.024C249.561 30.208 248.601 29.8 247.257 29.8ZM267.502 21.88H281.326L284.71 35.776L297.094 19.144L303.646 35.92L311.854 21.88H326.398L302.134 56.944L293.926 40.024L279.742 57.016L267.502 21.88ZM340.827 34.408H329.451L331.683 21.88H365.667L348.459 42.472H359.187L356.955 55H322.251L340.827 34.408Z" fill="#3890F3"/>
</svg>
